<svg width="200" height="56" viewBox="0 0 200 56" fill="none" xmlns="http://www.w3.org/2000/svg">
<path d="M27.17 55.4C22.27 55.4 17.7667 54.21 13.66 51.83C9.55333 49.4033 6.28667 46.09 3.86 41.89C1.48 37.6433 0.29 32.8833 0.29 27.61C0.29 22.5233 1.52667 17.88 4 13.68C6.52 9.48 9.85667 6.16666 14.01 3.74C18.21 1.31333 22.6667 0.0999972 27.38 0.0999972C30.6467 0.0999972 33.2367 0.403331 35.15 1.01C37.0633 1.57 39.28 2.57333 41.8 4.02V6.61C39.42 4.97667 37.2033 3.83333 35.15 3.18C33.1433 2.48 30.6233 2.13 27.59 2.13C22.97 2.13 18.7467 3.32 14.92 5.7C11.14 8.03333 8.13 11.1833 5.89 15.15C3.69667 19.07 2.6 23.2933 2.6 27.82C2.6 32.3933 3.72 36.64 5.96 40.56C8.2 44.48 11.1633 47.6067 14.85 49.94C18.5833 52.2267 22.5967 53.37 26.89 53.37C29.97 53.37 32.6533 53.02 34.94 52.32C37.2267 51.5733 39.5133 50.43 41.8 48.89V51.48C39.56 52.8333 37.25 53.8133 34.87 54.42C32.5367 55.0733 29.97 55.4 27.17 55.4ZM51.7488 1.5H54.0588V51.97H70.2988V54H51.7488V1.5ZM126.455 54H124.005L114.065 33.98H86.2052L76.4752 54H74.0252L100.205 0.24L126.455 54ZM113.225 31.95L100.065 5.28L87.1852 31.95H113.225ZM146.249 55.4C143.215 55.4 140.509 54.77 138.129 53.51C135.749 52.2033 133.882 50.36 132.529 47.98C131.175 45.6 130.499 42.8233 130.499 39.65V1.5H132.809V39.58C132.809 42.38 133.392 44.83 134.559 46.93C135.725 48.9833 137.312 50.57 139.319 51.69C141.372 52.81 143.659 53.37 146.179 53.37C148.699 53.37 150.962 52.8333 152.969 51.76C155.022 50.64 156.609 49.0533 157.729 47C158.895 44.9 159.479 42.4267 159.479 39.58V1.5H161.789V39.51C161.789 42.73 161.135 45.5533 159.829 47.98C158.522 50.36 156.679 52.2033 154.299 53.51C151.965 54.77 149.282 55.4 146.249 55.4ZM183.872 54.98C178.038 54.98 173.512 52.5767 170.292 47.77V43.99C171.552 46.79 173.372 48.9833 175.752 50.57C178.178 52.1567 181.072 52.95 184.432 52.95C186.765 52.95 188.912 52.4367 190.872 51.41C192.878 50.3833 194.465 48.9367 195.632 47.07C196.798 45.2033 197.382 43.0567 197.382 40.63C197.382 38.4367 197.008 36.5467 196.262 34.96C195.515 33.3733 194.278 31.8567 192.552 30.41C190.825 28.9167 188.328 27.1667 185.062 25.16L182.822 23.76C180.768 22.5 179.112 21.38 177.852 20.4C176.592 19.42 175.495 18.2767 174.562 16.97C173.348 15.15 172.742 13.05 172.742 10.67C172.742 7.49666 173.768 5.02333 175.822 3.25C177.875 1.47667 180.488 0.589999 183.662 0.589999C187.955 0.589999 191.362 2.17666 193.882 5.35V8.92C192.808 6.96 191.338 5.42 189.472 4.3C187.605 3.18 185.552 2.62 183.312 2.62C180.978 2.62 179.018 3.34333 177.432 4.79C175.845 6.23666 175.052 8.17333 175.052 10.6C175.052 12.98 175.775 15.0333 177.222 16.76C178.715 18.44 181.212 20.2833 184.712 22.29C189.005 24.81 192.342 27.0967 194.722 29.15C196.402 30.69 197.615 32.3933 198.362 34.26C199.155 36.1267 199.552 38.2033 199.552 40.49C199.552 43.3833 198.875 45.9267 197.522 48.12C196.168 50.3133 194.302 52.0167 191.922 53.23C189.542 54.3967 186.858 54.98 183.872 54.98Z" fill="white"/>
</svg>
